<svg xmlns="http://www.w3.org/2000/svg" width="214.573" height="163.355" viewBox="0 0 214.573 163.355"><defs><style>.a{fill:#582f08;}</style></defs><path class="a" d="M133.771,241.138q-49.654,0-99.3-.006c-5.586,0-7.667-2.093-7.66-7.679q0-32.37-.006-64.734c0-1.931-.11-3.862-.272-5.787a16.462,16.462,0,0,1,1.192-8.049q15.271-35.889,30.413-71.844c1.853-4.381,3.169-5.249,7.965-5.249q67.881,0,135.762,0c4.549,0,6,.985,7.725,5.262,9.734,24.108,19.539,48.19,29.091,72.369a32.749,32.749,0,0,1,2.223,11.5c.207,22.319.1,44.645.1,66.964,0,4.906-2.359,7.258-7.252,7.258Q183.752,241.147,133.771,241.138ZM42.032,153.287h2.476c6.856,0,13.719-.078,20.576.052,1.84.032,2.534-.59,3.1-2.268Q78.067,121.84,88.1,92.661c.253-.739.415-1.51.687-2.521-6.066,0-11.866.1-17.66-.052-1.964-.052-2.845.6-3.59,2.372q-12.229,29.192-24.6,58.312C42.621,151.511,42.388,152.276,42.032,153.287Zm43.141-13.771c-1.413,4.167-2.994,8.82-4.634,13.668H190.5c-1.069-3.5-2.2-6.785-3.052-10.149-.518-2.035-1.5-2.573-3.577-2.566q-45.727.117-91.454.013A58.441,58.441,0,0,1,85.173,139.516Zm79.277,26.272H100.538c1.134,7.647,4.083,14.147,10.11,18.923,8.716,6.915,18.807,8.166,29.409,6.442C153.511,188.969,162.992,179.067,164.45,165.788Zm18.217-37.782c-1.134-3.642-2.314-6.921-3.143-10.285-.48-1.944-1.316-2.534-3.318-2.527-18.321.084-36.648.045-54.968.045-8.567,0-17.128-.019-25.7.032-.778.006-2.054.3-2.242.791-1.478,3.849-2.748,7.77-4.173,11.937C120.434,128.006,151.365,128.006,182.667,128.006Zm41.78,25.287c-.376-1.063-.616-1.821-.914-2.56q-11.286-27.977-22.585-55.947c-1.866-4.627-1.86-4.634-6.869-4.634H183.937c.3,1.1.48,1.808.693,2.508q8.525,27.413,17.076,54.813c.6,1.9.791,4.485,2.113,5.444s3.856.356,5.858.369C214.506,153.307,219.321,153.294,224.447,153.294ZM97.726,102.739H174.8c-1.257-4.031-2.391-7.861-3.7-11.633-.169-.48-1.251-.9-1.925-.914-4.614-.078-9.235-.045-13.849-.045q-25.585,0-51.164.032c-.778,0-2.074.253-2.262.719C100.409,94.748,99.126,98.675,97.726,102.739Z" transform="translate(-26.457 -77.786)"/></svg>