<svg xmlns="http://www.w3.org/2000/svg" xmlns:xlink="http://www.w3.org/1999/xlink" width="1384" height="321.588" viewBox="0 0 1384 321.588"><defs><style>.a{fill:#52b26e;}.ac,.af,.b{fill:none;}.c{fill:#e3bc97;}.d{fill:#0e0d0e;}.e{fill:#2584c6;}.f{fill:#074874;}.g{fill:#c3bfe0;}.h{fill:#dedaed;}.i{fill:#cf5258;}.j{fill:#a8a6c4;}.k{fill:#9694ac;}.l{fill:#754d24;}.m{fill:#5f3813;}.n{fill:#f5a35e;}.o{fill:#a75339;}.p{fill:#a6a5aa;}.q{fill:#cdcdcc;}.r{fill:#e9e9e9;}.s{fill:#ee7a6e;}.t{fill:#cd665f;}.u{clip-path:url(#a);}.v{fill:#30aa5b;}.w{clip-path:url(#b);}.x{fill:#e56961;}.y{fill:#262728;}.z{fill:#e0cd81;}.aa{fill:#d367a3;}.ab{fill:#1779b7;}.ac,.af{stroke:#603813;stroke-miterlimit:10;}.ad{fill:#a36b45;}.ae{fill:#754c28;}.af{opacity:0;}</style><clipPath id="a"><path class="a" d="M771.539,246.933s6.227-14.549,5.661-25.577-7.359-17.689-11.241-16.081-11.272,16.222-6.55,41.658S771.539,246.933,771.539,246.933Z" transform="translate(-757.883 -205.037)"/></clipPath><clipPath id="b"><path class="b" d="M757.144,249.281s-2.1-8.214-2.264-21.979-1.941-22.66-6.308-24.763-8.41-.97-10.675,8.087,1.294,29.6,4.691,38.655S757.144,249.281,757.144,249.281Z" transform="translate(-737.184 -201.636)"/></clipPath></defs><g transform="translate(-2.02 -0.002)"><rect class="c" width="1384" height="240" rx="20" transform="translate(2.02 81.59)"/><path class="d" d="M1146.46,264.24l-11.47,38.44-15.61-15.08,8-27.33Z"/><rect class="e" width="143.13" height="112.12" rx="15.77" transform="translate(1050.05 152.12)"/><rect class="f" width="143.13" height="112.12" rx="15.77" transform="translate(1036.92 152.12)"/><path class="g" d="M1019.08,146.96l-22.31,39.75,11.99,49.52,15.44-21.88Z"/><path class="h" d="M1123.51,110s26.17,20.15,32.73,32.74S1129.1,258.2,1129.1,258.2l-2.69,40.26-98.7.59s-2-62.91-6.86-100.79c-3-23.31-4-56.59-2.18-59.87,4.77-8.61,45.52-25.21,48.7-28.39S1123.51,110,1123.51,110Z"/><path class="i" d="M1066.55,133.39c-.81,2.28-6.17,6.81-6.17,8s6.36,13.52,6.36,13.52L1056,260.27l24.45-5.07-3.28-100.64,10.29-12.38-7.31-9.09Z"/><path class="g" d="M1111.27,101s8.06,15.81,8.35,20.28S1093.11,151,1093.11,151l-13-17.91,30.57-21.62Z"/><path class="g" d="M1067.74,114.15s-9.73,6.32-11.18,10.32-6.12,25.76-6.12,25.76l9.94-8.84,6.17-8v-2.54Z"/><path class="j" d="M1050.43,265.42s.9-3.66,1.5-3.8c2.69-.62,6.87,3.87,6.87,3.87S1053.21,267,1050.43,265.42Z"/><path class="k" d="M1057.31,280.83a7.56,7.56,0,0,0,5.06,3.14c3.27.38,4.32-5.36,4.32-5.36Z"/><path class="l" d="M1006,260.37s16.55-5.67,25.72-2.69,24.68,3.58,30.64,2.69,9.7-.3,12,6-4.26,12.82-15.29,14.31-22.07-3.72-27.36-6.16-14.79,2.8-16.38,3.88-6.36,0-6.36,0Z"/><path class="g" d="M1150.33,147.36s.18-6.57,8.05,11.69-12.23,95.26-14.32,104.33-11.59,22.16-18.47,22.33c-43.39,1.1-63.22-1.74-63.22-1.74s6.71-7.6,3.43-17c-2.25-6.44-14.6-6.33-14.6-6.33s16.9-5.12,22.35-6.5c13-3.28,35.42-5.65,35.42-5.65s9.35-76.48,16.66-82.19Z"/><path class="m" d="M1111.27,101l-4.47-15.5s-28.33,14.31-33.1,15.5-6,3.28-6,3.28v9.84l-1.19,19.24,13.56-.3,30.57-21.62Z"/><path class="l" d="M1042.18,58.2a160.927,160.927,0,0,0,.33,25.5c1.32,13.55,18.85,34.28,28.79,38.61s35.36-10.79,37.91-16.82,5.5-14.2,5.5-14.2,7.88-1.09,10.43-7.12,3.09-16.38-3.9-17.66-9.43,1.2-9.43,1.2-4.45-25.38-14.34-25S1042.18,58.2,1042.18,58.2Z"/><path d="M1123.09,67.15s7.49-19.66,4.31-38.88S1102.34-2.63,1080.11.51s-43.38,10.69-51.14,22a62.139,62.139,0,0,0-3.82,6.31c-8,15.16,1.73,33.89,18.78,35.61l1.14.1c21.75,1.46,53.78-22,55.07-18.58s6.2,32.14,8.07,32.61S1110,63.75,1123.09,67.15Z"/><rect class="n" width="506.53" height="17.49" transform="translate(705.33 285.71)"/><rect class="o" width="145.52" height="17.49" transform="translate(1211.86 285.71)"/><path class="p" d="M1063.56,282.53a3.3,3.3,0,0,1-3.42,3.18h-55.62a3.31,3.31,0,0,1-3.43-3.18h0a3.31,3.31,0,0,1,3.43-3.18h55.62a3.31,3.31,0,0,1,3.42,3.18Z"/><path class="q" d="M1015.21,280.49l-14.31-99.43c-.16-4.68-7.31-4.68-7.31-4.68H853.47a4.85,4.85,0,0,0-5,4.68l15,99.43c0,2.59.16,5.22,2.92,5.22h145.23C1013.24,285.71,1016,285.71,1015.21,280.49Z"/><path class="r" d="M1006.38,274.53l-13.56-91.84c-.15-4.33-6.92-4.33-6.92-4.33H853.21a4.55,4.55,0,0,0-4.74,4.33l14.22,91.84c0,2.39.15,4.82,2.77,4.82H1003C1004.51,279.35,1007.12,279.35,1006.38,274.53Z"/></g><g transform="translate(-7.089 -1.561)"><g transform="translate(0 13.34)"><path class="s" d="M766.619,256.843H741.3a12.484,12.484,0,0,0-1.3,2.951l2.33,24.544a1.29,1.29,0,0,0,1.183,1.375h20.892a1.29,1.29,0,0,0,1.183-1.375l2.33-24.544A12.484,12.484,0,0,0,766.619,256.843Z" transform="translate(0 -13.34)"/><path class="t" d="M772.692,256.843H766.32l-3.276,28.87h6.93a1.416,1.416,0,0,0,1.453-1.375l2.862-24.544A11.4,11.4,0,0,0,772.692,256.843Z" transform="translate(-6.37 -13.34)"/><path class="a" d="M757.144,249.281s-2.1-8.214-2.264-21.979-1.941-22.66-6.308-24.763-8.41-.97-10.675,8.087,1.294,29.6,4.691,38.655S757.144,249.281,757.144,249.281Z" transform="translate(4.219 -2.917)"/><g transform="translate(747.162 197.953)"><path class="a" d="M771.539,246.933s6.227-14.549,5.661-25.577-7.359-17.689-11.241-16.081-11.272,16.222-6.55,41.658S771.539,246.933,771.539,246.933Z" transform="translate(-757.883 -205.037)"/><g class="u" transform="translate(0 0)"><g transform="translate(0.606 0.024)"><path class="v" d="M761.893,251.047l2.3.619c1.885-7,4.294-42.638,4.538-46.3a3.748,3.748,0,0,0-2.379-.192C766.152,208.214,763.707,244.306,761.893,251.047Z" transform="translate(-758.489 -205.061)"/><path class="v" d="M766.355,205.176a6.409,6.409,0,0,0-1.909,1.309c-1.223,5.186-5.16,22.711-5.957,36.421.233,2.05.532,4.17.92,6.375.128.731.259,1.414.391,2.066l1.076-.089c-1.258-15.022,6.166-45.379,6.241-45.684Z" transform="translate(-758.489 -205.061)"/><path class="v" d="M768.657,251.825c7.992-18.708,2.884-40.526,1.472-45.722a6.644,6.644,0,0,0-1.487-.773l-1.115.343c.076.249,7.544,25.066-1.064,45.215Z" transform="translate(-758.489 -205.061)"/></g></g></g><g transform="translate(741.404 198.718)"><g class="w" transform="translate(0)"><g transform="translate(8.226 -2.509)"><path class="v" d="M752.993,250.439c-1.459-3.08-2.393-17.816-3.185-33.283-.613-11.931-4.36-16.409-4.4-16.453l1.791-1.576c.176.2,4.328,5.023,4.989,17.908.449,8.769,1.5,29.3,2.959,32.383Z" transform="translate(-745.41 -199.127)"/></g><g transform="translate(6.875 -2.149)"><path class="v" d="M749.455,251.623c-.19-.83-4.663-20.493-4.339-34.231.309-13.154-1.043-17.016-1.057-17.054l2.228-.851c.064.162,1.539,4.134,1.213,17.961-.316,13.437,4.234,33.441,4.28,33.642Z" transform="translate(-744.059 -199.487)"/></g><g transform="translate(3.023 -2.144)"><path class="v" d="M746.17,252.015c-.222-.335-5.418-8.39-5.906-26.524-.487-18.03,2.355-25.682,2.477-26l2.228.853-1.114-.427,1.114.424c-.027.074-2.792,7.616-2.321,25.083s5.461,25.2,5.511,25.274Z" transform="translate(-740.208 -199.492)"/></g></g></g><path class="x" d="M769.674,249.281H738.246a1.28,1.28,0,0,0-1.157,1.376v.3s1.174,8.834,1.592,8.834h30.557c.419,0,1.592-8.834,1.592-8.834v-.3A1.281,1.281,0,0,0,769.674,249.281Z" transform="translate(0 -8.64)"/></g><g transform="translate(0 24.983)"><path class="y" d="M801.08,247.123c.2,1.8-.491,3.354-1.541,3.47h0c-1.051.116-2.063-1.25-2.262-3.05l-4.082-36.95c-.2-1.8.491-3.354,1.542-3.47h0c1.05-.116,2.062,1.249,2.261,3.05Z"/><path class="z" d="M803.63,246.1c-.038,1.811-.925,3.261-1.981,3.239h0c-1.057-.022-1.882-1.508-1.844-3.32l.78-37.166c.038-1.811.925-3.261,1.981-3.239h0c1.057.022,1.882,1.508,1.844,3.319Z" transform="translate(-2.7)"/><path class="aa" d="M809.4,246.1c-.038,1.811-.925,3.261-1.981,3.239h0c-1.057-.022-1.882-1.508-1.844-3.32l.78-37.166c.038-1.811.925-3.261,1.981-3.239h0c1.057.022,1.882,1.508,1.844,3.319Z" transform="translate(-4.749)"/><path class="ab" d="M792.208,236.77v37.078c0,6.553,3.655,11.865,8.165,11.865H809.9c4.509,0,8.165-5.312,8.165-11.865V236.77Z" transform="translate(0 -24.983)"/></g><g transform="translate(28 18)"><ellipse class="ac" cx="0.25" cy="0.25" rx="0.25" ry="0.25" transform="translate(906.944 96.368)"/><circle class="ad" transform="translate(907.444 96.868)"/></g><g transform="translate(6 2)"><ellipse class="ae" cx="0.25" cy="0.25" rx="0.25" ry="0.25" transform="translate(995.92 50.889)"/></g><g transform="translate(0 13)"><ellipse class="ae" cx="0.25" cy="0.25" rx="0.25" ry="0.25" transform="translate(1155.326 18.561)"/></g><g transform="translate(1 14)"><ellipse class="ae" cx="0.25" cy="0.25" rx="0.25" ry="0.25" transform="translate(770.367 150.997)"/></g><circle class="af" cx="0.25" cy="0.25" r="0.25" transform="translate(1225.937 149.915)"/></g></svg>