<svg xmlns="http://www.w3.org/2000/svg" width="435" height="384.82" viewBox="0 0 435 384.82"><defs><style>.a{opacity:0.1;}.b{fill:#331802;}.c{opacity:0.14;}.d{fill:#f9f9f9;}.e{fill:#582f08;}</style></defs><g transform="translate(0 -0.09)"><path class="a" d="M417.46.09H362.75A132.167,132.167,0,0,0,288.232,23.1l-50.4-.005-.29-.21-.6-.43c-.64-.46-1.29-.91-1.94-1.35A119.93,119.93,0,0,0,167.17.1H117.48A15.93,15.93,0,0,0,101.55,16V38.86a17.52,17.52,0,0,0-16,17.46V281.24A17.53,17.53,0,0,0,103,298.78H417.46A17.54,17.54,0,0,0,435,281.24V17.62A17.53,17.53,0,0,0,417.46.09Z"/><path class="b" d="M415,55.74V260a15.93,15.93,0,0,1-15.92,15.93H113.52A15.93,15.93,0,0,1,97.6,260V20.59A15.92,15.92,0,0,1,113.52,4.67h49.69a119.94,119.94,0,0,1,67.84,21c.95.65,1.89,1.31,2.82,2A118.367,118.367,0,0,1,247,38.79l1,1H399a15.92,15.92,0,0,1,16,15.95Z"/><path class="c" d="M396.46,39.82V147.43H114V25.69H231.05a119.48,119.48,0,0,1,17,14.12h148.4Z"/><rect class="d" width="282.49" height="121.75" transform="translate(116.22 27.68)"/><rect class="c" width="282.49" height="121.75" transform="translate(119.01 31.47)"/><rect class="d" width="282.49" height="121.75" transform="translate(121.25 33.88)"/><path class="c" d="M415,55.74V260a15.93,15.93,0,0,1-15.92,15.93H113.52A15.93,15.93,0,0,1,97.6,260V38.79H260.13a131.005,131.005,0,0,1,12.61-11.11h126V39.82h.36A15.92,15.92,0,0,1,415,55.74Z"/><path class="e" d="M413.51,4.67H358.79a132.109,132.109,0,0,0-93.419,38.7H99.09A17.53,17.53,0,0,0,81.55,60.9V285.82a17.54,17.54,0,0,0,17.54,17.54H413.51a17.54,17.54,0,0,0,17.54-17.54V22.2A17.54,17.54,0,0,0,413.51,4.67Z"/><path class="a" d="M390.28,27.27H335.57a132.168,132.168,0,0,0-74.538,23.013L210.65,50.27l-.3-.21-.6-.43c-.64-.46-1.28-.92-1.93-1.36a120,120,0,0,0-67.84-21H90.29A15.93,15.93,0,0,0,74.37,43.2V66A17.53,17.53,0,0,0,58.32,83.51V308.43A17.53,17.53,0,0,0,75.86,326H390.28a17.53,17.53,0,0,0,17.54-17.53V44.81A17.54,17.54,0,0,0,390.28,27.27Z"/><path class="b" d="M387.82,82.92V287.19a15.93,15.93,0,0,1-15.93,15.93H86.34a15.93,15.93,0,0,1-15.93-15.93V47.78A15.93,15.93,0,0,1,86.34,31.85H136a120.064,120.064,0,0,1,67.845,21c.945.647,1.885,1.317,2.815,2A120.3,120.3,0,0,1,219.84,66l1,1h151a15.93,15.93,0,0,1,15.98,15.92Z"/><path class="c" d="M369.28,67V174.62H86.78V52.87H203.87a120.232,120.232,0,0,1,17,14.13h148.4Z"/><rect class="d" width="282.49" height="121.75" transform="translate(89.04 54.87)"/><rect class="c" width="282.49" height="121.75" transform="translate(91.82 58.65)"/><rect class="d" width="282.49" height="121.75" transform="translate(94.07 61.06)"/><path class="c" d="M387.82,82.92V287.19a15.93,15.93,0,0,1-15.93,15.93H86.34a15.93,15.93,0,0,1-15.93-15.93V66H232.94a132.213,132.213,0,0,1,12.62-11.1h126V67h.36A15.93,15.93,0,0,1,387.82,82.92Z"/><path class="e" d="M386.33,31.85H331.61a132.13,132.13,0,0,0-93.43,38.7H71.9A17.53,17.53,0,0,0,54.37,88.09V313A17.53,17.53,0,0,0,71.9,330.54H386.33A17.53,17.53,0,0,0,403.86,313V49.39a17.53,17.53,0,0,0-17.53-17.54Z"/><path class="a" d="M363.1,54.46H308.38a132.129,132.129,0,0,0-74.53,23.014l-50.39-.014-.29-.21-.6-.43-1.93-1.36a120,120,0,0,0-67.84-21H63.11A15.93,15.93,0,0,0,47.18,70.38V93.22a17.54,17.54,0,0,0-16,17.47V335.61a17.53,17.53,0,0,0,17.53,17.54H363.1a17.53,17.53,0,0,0,17.53-17.54V72A17.53,17.53,0,0,0,363.1,54.46Z"/><path class="b" d="M360.64,110.11V314.38a15.93,15.93,0,0,1-15.93,15.92H59.15a15.92,15.92,0,0,1-15.92-15.92V75A15.92,15.92,0,0,1,59.15,59h49.69A120.019,120.019,0,0,1,176.7,80.014c.93.636,1.87,1.306,2.81,1.986a119.179,119.179,0,0,1,13.14,11.11c.35.33.7.68,1,1h151a15.93,15.93,0,0,1,15.99,16Z"/><path class="c" d="M342.09,94.18V201.8H59.6V80.05H176.68a120.23,120.23,0,0,1,17,14.13h148.4Z"/><rect class="d" width="282.49" height="121.75" transform="translate(61.85 82.05)"/><rect class="c" width="282.49" height="121.75" transform="translate(64.64 85.84)"/><rect class="d" width="282.49" height="121.75" transform="translate(66.89 88.25)"/><path class="c" d="M360.64,110.11V314.38a15.93,15.93,0,0,1-15.93,15.92H59.15a15.92,15.92,0,0,1-15.92-15.92V93.16H205.76a132.207,132.207,0,0,1,12.61-11.11h126V94.18h.36a15.93,15.93,0,0,1,15.91,15.93Z"/><path class="e" d="M359.14,59H304.43A132.13,132.13,0,0,0,211,97.74H44.72a17.53,17.53,0,0,0-17.54,17.53V340.19a17.54,17.54,0,0,0,17.54,17.54H359.14a17.54,17.54,0,0,0,17.54-17.54V76.57A17.53,17.53,0,0,0,359.14,59Z"/><path class="a" d="M335.91,81.64H281.2a132.114,132.114,0,0,0-74.535,23.017l-50.385-.017-.29-.21-.61-.44c-.64-.45-1.28-.91-1.93-1.35a119.93,119.93,0,0,0-67.83-21H35.92A15.93,15.93,0,0,0,20,97.57v22.84A17.52,17.52,0,0,0,4,137.87V362.8a17.54,17.54,0,0,0,17.54,17.53H335.91a17.53,17.53,0,0,0,17.54-17.53V99.18A17.54,17.54,0,0,0,335.91,81.64Z"/><path class="b" d="M333.45,137.29V341.56a15.93,15.93,0,0,1-15.92,15.93H32a15.93,15.93,0,0,1-16-15.93V102.15A15.93,15.93,0,0,1,32,86.22H81.66a119.94,119.94,0,0,1,67.84,21c.95.65,1.89,1.31,2.82,2a119.359,119.359,0,0,1,13.15,11.1l1,1h151a15.92,15.92,0,0,1,15.98,15.97Z"/><path class="c" d="M314.91,121.37V229H32.42V107.24H149.5a119.55,119.55,0,0,1,17,14.13H314.9Z"/><rect class="d" width="282.49" height="121.75" transform="translate(34.67 109.24)"/><rect class="c" width="282.49" height="121.75" transform="translate(37.45 113.02)"/><rect class="d" width="282.49" height="121.75" transform="translate(39.7 115.43)"/><path class="c" d="M333.45,137.29V341.56a15.93,15.93,0,0,1-15.92,15.93H32a15.93,15.93,0,0,1-16-15.93V120.34H178.57a132.209,132.209,0,0,1,12.62-11.1h126v12.13h.37a15.92,15.92,0,0,1,15.89,15.92Z"/><path class="e" d="M332,86.22H277.24a132.094,132.094,0,0,0-93.425,38.7l-166.275,0A17.53,17.53,0,0,0,0,142.45V367.38a17.53,17.53,0,0,0,17.54,17.53H332a17.53,17.53,0,0,0,17.53-17.53V103.76A17.53,17.53,0,0,0,332,86.22Z"/></g></svg>