<svg xmlns="http://www.w3.org/2000/svg" width="194" height="180" viewBox="0 0 194 180"><defs><style>.a{fill:#582f08;}</style></defs><g transform="translate(0.03 -0.004)"><path class="a" d="M0,106.151c2.884-3.824,5.854-7.59,8.659-11.471,8.088-11.3,16.158-22.616,24.107-34.006a6.627,6.627,0,0,1,6.183-3.254c11.326.2,22.652.081,34.238.081V63.66c-9.906,0-19.656.187-29.389-.089-3.966-.081-6.2,1.163-8.3,4.239C27.2,79.914,18.6,91.841,9.677,104.418H63.364v22.006h67.083V104.7h53.574a30.328,30.328,0,0,0-1.732-3.075c-8.347-11.78-16.652-23.593-25.2-35.251a7.423,7.423,0,0,0-5.074-2.579c-10.313-.244-20.635-.122-31.234-.122V57.542c12.3,0,24.479-.049,36.654.089.97,0,2.217,1.09,2.858,1.977q16.349,22.828,32.481,45.778a7.631,7.631,0,0,1,1.143,4.157q.1,29.361,0,58.721c0,7.517-4.6,11.666-12.66,11.674q-84.271,0-168.533.065c-6.564,0-10.391-2.937-12.755-8.249Z" transform="translate(0 0)"/><path class="a" d="M112.07,124.51c-11.16-11.11-22-21.78-32.65-32.73-1.14-1.17-1.54-4.5-.69-5.83,1.63-2.59,4-1.2,5.82.59q9.67,9.67,19.33,19.35c1.14,1.13,2.34,2.2,4.45,4.19V7.31c0-1.49-.36-3.18.22-4.42s2.23-3,3.2-2.88a5.94,5.94,0,0,1,3.7,3c.64,1.17.22,2.92.22,4.41V109.67c1.57-1.24,2.6-1.9,3.44-2.73q9.87-9.82,19.68-19.7c1.95-1.94,4-4.08,6.67-1.27,2.27,2.41.77,4.51-1.14,6.41C133.64,103,123,113.61,112.07,124.51Z" transform="translate(-15.106)"/></g></svg>