<svg xmlns="http://www.w3.org/2000/svg" width="194" height="180" viewBox="0 0 194 180"><defs><style>.a{fill:#582f08;}</style></defs><g transform="translate(0.03)"><path class="a" d="M0,106.149c2.884-3.824,5.854-7.59,8.659-11.471,8.088-11.3,16.158-22.616,24.107-34a6.627,6.627,0,0,1,6.183-3.254c11.326.2,22.652.081,34.238.081V63.66c-9.906,0-19.656.187-29.389-.089-3.966-.081-6.2,1.163-8.3,4.238C27.2,79.914,18.6,91.84,9.677,104.417H63.364v22.006h67.083V104.7h53.574a30.327,30.327,0,0,0-1.732-3.075c-8.347-11.78-16.652-23.592-25.2-35.249a7.423,7.423,0,0,0-5.074-2.579c-10.313-.244-20.635-.122-31.234-.122V57.542c12.3,0,24.479-.049,36.654.089.97,0,2.217,1.09,2.858,1.977q16.349,22.827,32.481,45.776a7.63,7.63,0,0,1,1.143,4.157q.1,29.36,0,58.719c0,7.517-4.6,11.666-12.66,11.674q-84.271,0-168.533.065c-6.564,0-10.391-2.937-12.755-8.249Z" transform="translate(0 0)"/><path class="a" d="M112.07,0C100.91,11.11,90,21.78,79.42,32.72c-1.14,1.18-1.54,4.51-.69,5.84,1.63,2.58,4,1.2,5.82-.6q9.67-9.66,19.33-19.34c1.14-1.13,2.34-2.21,4.45-4.19V117.2c0,1.49-.36,3.18.22,4.42s2.23,3,3.2,2.88a5.92,5.92,0,0,0,3.7-3c.64-1.16.22-2.91.22-4.4V14.9c1.57,1.24,2.6,1.89,3.44,2.73Q129,27.44,138.8,37.32c1.95,2,4,4.09,6.67,1.27,2.27-2.4.77-4.5-1.14-6.4C133.64,21.55,123,10.89,112.07,0Z" transform="translate(-15.107)"/></g></svg>