<svg xmlns="http://www.w3.org/2000/svg" width="51.589" height="50" viewBox="0 0 51.589 50"><defs><style>.a{fill:#e3bc97;fill-rule:evenodd;}</style></defs><path class="a" d="M31.427,0H2.979A2.979,2.979,0,0,0,0,2.979V47.021A2.979,2.979,0,0,0,2.979,50H39.5a2.979,2.979,0,0,0,2.979-2.979V38.268a26.715,26.715,0,0,1-4.622-5.412c-2.021-3.038-4.438-7.74-4.438-10.684a9.3,9.3,0,0,1,9.054-9.294l0-2.145-7.725.213a3.361,3.361,0,0,1-3.4-3.4ZM42.2,10.317l-7.447.209a2.944,2.944,0,0,1-2.979-2.979L31.849.283Zm-5.238,5.1A8.758,8.758,0,0,1,42.7,13.3a8.867,8.867,0,0,1,8.892,8.872,11.26,11.26,0,0,1-.8,3.58c-1.489,4.041-4.761,9.339-8.073,12.164L40.155,35.25a34.838,34.838,0,0,1-3.282-4.8c-1.311-2.294-3.029-5.958-3.029-8.286a8.817,8.817,0,0,1,3.118-6.752ZM46.028,19.859ZM38.035,23.17a4.687,4.687,0,1,1,8,3.311h0a4.692,4.692,0,0,1-7.983-3.321ZM12.342,30H34.565a.209.209,0,0,1,.209.209v2.875a.209.209,0,0,1-.209.213H12.342a.213.213,0,0,1-.213-.213V30.21A.209.209,0,0,1,12.342,30Zm-7.08,6.633h3.1a.213.213,0,0,1,.213.213v2.87a.209.209,0,0,1-.213.209h-3.1a.209.209,0,0,1-.209-.209v-2.87a.209.209,0,0,1,.209-.213Zm0-6.633h3.1a.209.209,0,0,1,.213.209v2.875a.213.213,0,0,1-.213.213h-3.1a.209.209,0,0,1-.209-.213V30.21A.209.209,0,0,1,5.263,30Zm20.5-6.424v2.875a.209.209,0,0,1-.209.213H12.342a.213.213,0,0,1-.213-.213V23.578a.213.213,0,0,1,.213-.213H25.554a.209.209,0,0,1,.209.213Zm-17.188,0v2.875a.213.213,0,0,1-.213.213h-3.1a.209.209,0,0,1-.209-.213V23.578a.209.209,0,0,1,.209-.213h3.1A.213.213,0,0,1,8.574,23.578Zm16.979-3.545H12.342a.213.213,0,0,1-.213-.213V16.945a.213.213,0,0,1,.213-.213H25.554a.209.209,0,0,1,.209.213v2.875a.213.213,0,0,1-.209.213ZM8.574,16.945v2.875a.213.213,0,0,1-.213.213h-3.1a.213.213,0,0,1-.209-.213V16.945a.209.209,0,0,1,.209-.213h3.1A.213.213,0,0,1,8.574,16.945Zm3.768,19.69H34.565a.209.209,0,0,1,.209.213v2.87a.209.209,0,0,1-.209.209H12.342a.209.209,0,0,1-.213-.209v-2.87A.213.213,0,0,1,12.342,36.635Z"/></svg>